<svg id="svg" version="1.1" xmlns="http://www.w3.org/2000/svg" xmlns:xlink="http://www.w3.org/1999/xlink" width="400" height="60" viewBox="0, 0, 400,60"><g id="svgg"><path id="path0" d="M63.333 0.990 L 63.333 1.980 62.708 2.032 C 62.117 2.081,62.081 2.117,62.032 2.708 C 61.985 3.266,61.931 3.333,61.523 3.333 C 60.919 3.333,60.667 3.614,60.667 4.283 C 60.667 4.699,60.504 5.000,60.000 5.520 C 59.489 6.046,59.333 6.339,59.333 6.770 C 59.333 7.276,59.286 7.333,58.867 7.333 C 58.252 7.333,58.000 7.611,58.000 8.287 C 58.000 8.723,57.912 8.875,57.588 8.998 C 57.129 9.173,56.667 10.103,56.667 10.854 C 56.667 11.302,56.623 11.333,56.000 11.333 L 55.333 11.333 55.333 10.262 C 55.333 9.081,55.095 8.667,54.415 8.667 C 54.079 8.667,54.012 8.573,53.968 8.042 C 53.919 7.451,53.883 7.414,53.292 7.365 L 52.667 7.313 52.667 6.252 C 52.667 5.082,52.426 4.667,51.748 4.667 C 51.412 4.667,51.346 4.573,51.302 4.042 L 51.250 3.417 49.849 3.333 C 48.543 3.256,48.445 3.224,48.390 2.865 C 48.349 2.591,48.393 2.516,48.541 2.605 C 48.704 2.703,48.704 2.673,48.538 2.469 C 47.985 1.786,46.298 1.991,46.166 2.757 C 46.090 3.202,46.013 3.255,45.374 3.301 C 44.672 3.352,44.667 3.358,44.667 4.000 C 44.667 4.627,44.648 4.648,44.042 4.698 C 43.453 4.747,43.414 4.785,43.366 5.366 C 43.317 5.944,43.277 5.984,42.699 6.032 C 42.119 6.080,42.080 6.119,42.032 6.706 C 41.987 7.248,41.912 7.347,41.454 7.465 C 40.862 7.619,40.710 7.961,40.683 9.198 C 40.667 9.978,40.665 9.980,40.042 10.032 C 39.451 10.081,39.414 10.117,39.365 10.708 C 39.321 11.240,39.254 11.333,38.919 11.333 C 38.241 11.333,38.000 11.748,38.000 12.919 L 38.000 13.980 37.375 14.032 C 36.784 14.081,36.747 14.117,36.698 14.708 C 36.652 15.270,36.599 15.333,36.177 15.333 C 35.615 15.333,35.382 15.578,35.306 16.249 C 35.260 16.656,35.158 16.764,34.751 16.834 C 34.206 16.928,34.057 17.289,34.020 18.615 C 34.000 19.297,33.986 19.314,33.375 19.365 C 32.784 19.414,32.747 19.451,32.698 20.042 C 32.654 20.573,32.588 20.667,32.252 20.667 C 31.574 20.667,31.333 21.082,31.333 22.252 L 31.333 23.313 30.708 23.365 C 30.117 23.414,30.081 23.451,30.032 24.042 C 29.985 24.599,29.931 24.667,29.523 24.667 C 28.924 24.667,28.667 24.946,28.667 25.599 C 28.667 26.031,28.586 26.151,28.239 26.238 C 27.741 26.363,27.333 27.186,27.333 28.068 C 27.333 28.616,27.301 28.649,26.708 28.698 C 26.121 28.747,26.080 28.786,26.033 29.358 C 25.987 29.901,25.922 29.977,25.426 30.071 C 24.790 30.190,24.672 30.456,24.669 31.782 L 24.667 32.647 24.042 32.698 C 23.451 32.747,23.414 32.784,23.365 33.375 C 23.319 33.933,23.264 34.000,22.857 34.000 C 22.160 34.000,22.000 34.284,22.000 35.523 L 22.000 36.647 21.375 36.698 C 20.786 36.747,20.747 36.785,20.699 37.366 C 20.651 37.944,20.610 37.984,20.032 38.032 C 19.454 38.080,19.414 38.121,19.366 38.697 C 19.322 39.227,19.246 39.326,18.814 39.421 C 18.217 39.552,18.000 40.017,18.000 41.167 L 18.000 41.980 17.375 42.032 C 16.784 42.081,16.747 42.117,16.698 42.708 C 16.654 43.240,16.588 43.333,16.252 43.333 C 15.574 43.333,15.333 43.748,15.333 44.919 L 15.333 45.980 14.708 46.032 C 14.119 46.080,14.080 46.119,14.032 46.699 C 13.984 47.277,13.944 47.317,13.366 47.366 C 12.784 47.414,12.745 47.453,12.667 48.082 C 12.594 48.666,12.522 48.759,12.085 48.834 C 11.539 48.928,11.390 49.289,11.353 50.615 C 11.334 51.297,11.319 51.314,10.708 51.365 L 10.083 51.417 10.083 54.667 L 10.083 57.917 46.482 57.959 C 73.249 57.990,82.941 57.951,83.107 57.813 C 83.232 57.710,83.333 57.382,83.333 57.084 C 83.333 56.616,83.401 56.528,83.829 56.443 C 84.418 56.325,84.536 55.984,84.564 54.323 C 84.580 53.401,84.522 53.121,84.268 52.881 C 84.095 52.717,84.006 52.677,84.070 52.792 C 84.152 52.939,84.072 52.984,83.802 52.943 C 83.467 52.893,83.411 52.779,83.375 52.068 C 83.289 50.395,83.208 50.190,82.586 50.073 C 82.076 49.977,82.013 49.904,81.967 49.358 C 81.920 48.786,81.879 48.747,81.292 48.698 C 80.681 48.648,80.666 48.631,80.647 47.948 C 80.610 46.622,80.461 46.261,79.915 46.167 C 79.478 46.092,79.406 46.000,79.333 45.416 C 79.254 44.784,79.218 44.747,78.625 44.698 C 78.044 44.650,78.000 44.609,77.999 44.115 C 77.997 43.033,77.687 42.329,77.166 42.225 C 76.739 42.139,76.678 42.050,76.634 41.439 C 76.585 40.774,76.562 40.748,75.958 40.698 C 75.364 40.649,75.333 40.617,75.333 40.060 C 75.333 39.594,75.197 39.343,74.667 38.833 C 74.147 38.334,74.000 38.069,74.000 37.630 C 74.000 36.947,73.750 36.667,73.143 36.667 C 72.736 36.667,72.681 36.599,72.635 36.042 C 72.606 35.696,72.490 35.407,72.375 35.396 C 72.260 35.384,71.979 35.366,71.750 35.354 C 71.348 35.334,71.333 35.292,71.333 34.200 C 71.333 32.946,71.175 32.667,70.467 32.667 C 70.044 32.667,70.000 32.612,70.000 32.078 C 70.000 31.187,69.595 30.363,69.094 30.238 C 68.678 30.133,68.667 30.094,68.667 28.742 L 68.667 27.353 69.292 27.302 C 69.883 27.253,69.919 27.216,69.968 26.625 C 70.015 26.067,70.069 26.000,70.477 26.000 C 71.056 26.000,71.333 25.723,71.333 25.147 C 71.333 24.776,71.427 24.673,71.843 24.581 C 72.451 24.448,72.667 23.989,72.667 22.833 L 72.667 22.020 73.292 21.968 C 73.883 21.919,73.919 21.883,73.968 21.292 C 74.015 20.734,74.069 20.667,74.477 20.667 C 75.058 20.667,75.333 20.390,75.333 19.805 C 75.333 19.425,75.428 19.318,75.867 19.205 C 76.287 19.096,76.431 18.946,76.547 18.498 C 76.723 17.818,76.642 14.419,76.445 14.222 C 76.368 14.146,74.306 14.054,71.861 14.018 C 69.417 13.982,67.641 13.906,67.915 13.850 C 68.617 13.705,68.624 13.633,68.647 6.375 L 68.667 0.000 66.000 0.000 L 63.333 0.000 63.333 0.990 M64.993 4.163 C 65.588 4.481,65.667 5.226,65.667 10.500 C 65.667 14.908,65.770 16.541,66.058 16.679 C 66.072 16.686,67.413 16.745,69.038 16.810 C 71.626 16.915,72.049 16.972,72.442 17.265 C 73.167 17.806,73.307 18.144,72.923 18.429 C 72.742 18.563,72.478 18.990,72.334 19.378 C 72.167 19.831,71.912 20.161,71.621 20.300 C 71.361 20.425,71.122 20.708,71.060 20.967 C 71.000 21.214,70.665 21.731,70.315 22.115 C 69.964 22.499,69.631 23.002,69.573 23.233 C 69.515 23.463,69.219 23.842,68.914 24.074 C 68.597 24.316,68.313 24.712,68.250 25.001 C 68.180 25.320,67.966 25.595,67.667 25.750 C 67.380 25.898,67.154 26.180,67.091 26.466 C 67.034 26.726,66.653 27.302,66.244 27.748 C 65.835 28.193,65.500 28.628,65.500 28.715 C 65.500 28.801,65.235 29.114,64.912 29.410 C 64.086 30.167,64.367 30.657,65.633 30.664 C 66.160 30.668,66.775 31.331,66.990 32.129 C 67.095 32.520,67.341 32.910,67.584 33.068 C 67.812 33.218,68.112 33.611,68.250 33.942 C 68.388 34.274,68.756 34.826,69.067 35.170 C 69.378 35.514,69.684 36.034,69.748 36.325 C 69.822 36.659,70.006 36.907,70.249 37.000 C 70.485 37.089,70.714 37.387,70.840 37.770 C 70.953 38.113,71.266 38.595,71.536 38.842 C 72.599 39.812,72.333 41.297,70.955 42.085 L 70.083 42.583 53.956 42.544 L 37.830 42.504 37.031 42.099 C 35.422 41.284,35.675 39.565,37.707 37.500 C 37.933 37.271,38.282 36.761,38.483 36.367 C 38.684 35.973,38.960 35.607,39.097 35.555 C 39.234 35.503,39.445 35.225,39.566 34.938 C 39.688 34.651,40.097 34.043,40.477 33.586 C 40.856 33.130,41.167 32.659,41.167 32.540 C 41.167 32.421,41.395 32.082,41.675 31.787 C 42.220 31.211,42.724 30.520,43.456 29.346 C 43.710 28.940,44.160 28.331,44.458 27.992 C 44.756 27.653,45.000 27.292,45.000 27.189 C 45.000 27.085,45.252 26.719,45.561 26.375 C 45.869 26.031,46.254 25.488,46.417 25.167 C 46.579 24.846,46.964 24.302,47.273 23.958 C 47.581 23.614,47.833 23.227,47.833 23.098 C 47.833 22.969,48.049 22.681,48.313 22.459 C 48.577 22.237,48.845 21.893,48.908 21.696 C 48.970 21.498,49.308 20.974,49.658 20.531 C 50.008 20.088,50.415 19.492,50.563 19.207 C 50.710 18.921,50.974 18.587,51.147 18.466 C 51.321 18.344,51.573 17.983,51.708 17.664 C 52.014 16.936,53.536 15.500,54.000 15.500 C 54.446 15.500,55.167 16.216,55.167 16.659 C 55.167 17.166,55.408 17.072,55.678 16.460 C 55.809 16.163,56.098 15.832,56.319 15.723 C 56.564 15.602,56.840 15.215,57.022 14.734 C 57.187 14.299,57.541 13.713,57.808 13.430 C 58.075 13.148,58.380 12.646,58.485 12.316 C 58.600 11.955,58.840 11.641,59.088 11.528 C 59.315 11.425,59.500 11.244,59.500 11.126 C 59.500 10.793,60.179 9.606,60.497 9.384 C 60.653 9.274,60.908 8.854,61.062 8.450 C 61.234 7.998,61.500 7.644,61.754 7.528 C 61.981 7.425,62.168 7.208,62.170 7.045 C 62.177 6.540,62.804 5.333,63.118 5.225 C 63.282 5.168,63.657 4.869,63.950 4.561 C 64.541 3.939,64.561 3.932,64.993 4.163 M60.503 5.746 C 60.387 5.886,60.215 6.000,60.120 6.000 C 60.026 6.000,60.085 5.850,60.251 5.666 C 60.596 5.285,60.825 5.358,60.503 5.746 M83.797 16.772 C 83.273 16.925,83.126 21.193,83.628 21.694 C 83.893 21.960,85.443 21.957,85.710 21.691 C 85.937 21.463,86.015 17.127,85.795 16.907 C 85.645 16.756,84.187 16.658,83.797 16.772 M53.833 19.250 C 53.833 19.387,53.908 19.500,54.000 19.500 C 54.092 19.500,54.167 19.387,54.167 19.250 C 54.167 19.112,54.092 19.000,54.000 19.000 C 53.908 19.000,53.833 19.112,53.833 19.250 M52.500 20.750 C 52.500 20.887,52.575 21.000,52.667 21.000 C 52.758 21.000,52.833 20.887,52.833 20.750 C 52.833 20.612,52.758 20.500,52.667 20.500 C 52.575 20.500,52.500 20.612,52.500 20.750 M51.167 23.563 C 51.167 24.031,50.906 24.280,50.333 24.359 C 50.050 24.398,49.900 24.537,49.863 24.792 C 49.735 25.696,51.210 25.240,51.394 24.320 C 51.546 23.562,51.525 23.167,51.333 23.167 C 51.242 23.167,51.167 23.345,51.167 23.563 M57.583 25.701 C 57.400 25.801,57.224 25.904,57.192 25.930 C 57.159 25.956,57.291 26.147,57.483 26.354 C 57.676 26.560,57.833 26.828,57.833 26.948 C 57.833 27.419,58.158 27.133,58.264 26.569 C 58.405 25.818,58.094 25.422,57.583 25.701 M58.042 32.750 C 58.044 33.117,58.078 33.247,58.118 33.040 C 58.158 32.832,58.156 32.532,58.115 32.373 C 58.073 32.214,58.040 32.383,58.042 32.750 M61.833 33.917 C 61.833 34.054,61.908 34.167,62.000 34.167 C 62.092 34.167,62.167 34.054,62.167 33.917 C 62.167 33.779,62.092 33.667,62.000 33.667 C 61.908 33.667,61.833 33.779,61.833 33.917 M57.941 36.597 C 57.705 38.319,57.930 40.132,58.231 38.933 C 58.286 38.714,58.578 38.388,58.880 38.210 C 60.065 37.511,60.083 36.175,58.908 36.169 C 58.629 36.168,58.321 36.087,58.224 35.991 C 58.100 35.867,58.016 36.048,57.941 36.597 M74.417 39.000 C 74.709 39.324,74.708 39.333,74.359 39.333 C 74.111 39.333,74.000 39.230,74.000 39.000 C 74.000 38.817,74.026 38.667,74.058 38.667 C 74.089 38.667,74.251 38.817,74.417 39.000 " stroke="none" fill="#083795" fill-rule="evenodd"></path><path id="path1" d="M48.391 2.869 C 48.432 3.146,48.577 3.265,48.923 3.306 C 49.346 3.356,49.373 3.332,49.171 3.088 C 48.729 2.555,48.327 2.443,48.391 2.869 M63.950 4.561 C 63.657 4.869,63.282 5.168,63.118 5.225 C 62.804 5.333,62.177 6.540,62.170 7.045 C 62.168 7.208,61.981 7.425,61.754 7.528 C 61.500 7.644,61.234 7.998,61.062 8.450 C 60.908 8.854,60.653 9.274,60.497 9.384 C 60.179 9.606,59.500 10.793,59.500 11.126 C 59.500 11.244,59.315 11.425,59.088 11.528 C 58.840 11.641,58.600 11.955,58.485 12.316 C 58.380 12.646,58.075 13.148,57.808 13.430 C 57.541 13.713,57.187 14.299,57.022 14.734 C 56.840 15.215,56.564 15.602,56.319 15.723 C 56.098 15.832,55.809 16.163,55.678 16.460 C 55.408 17.072,55.167 17.166,55.167 16.659 C 55.167 16.216,54.446 15.500,54.000 15.500 C 53.536 15.500,52.014 16.936,51.708 17.664 C 51.573 17.983,51.321 18.344,51.147 18.466 C 50.974 18.587,50.710 18.921,50.563 19.207 C 50.415 19.492,50.008 20.088,49.658 20.531 C 49.308 20.974,48.970 21.498,48.908 21.696 C 48.845 21.893,48.577 22.237,48.313 22.459 C 48.049 22.681,47.833 22.969,47.833 23.098 C 47.833 23.227,47.581 23.614,47.273 23.958 C 46.964 24.302,46.579 24.846,46.417 25.167 C 46.254 25.488,45.869 26.031,45.561 26.375 C 45.252 26.719,45.000 27.085,45.000 27.189 C 45.000 27.292,44.756 27.653,44.458 27.992 C 44.160 28.331,43.710 28.940,43.456 29.346 C 42.724 30.520,42.220 31.211,41.675 31.787 C 41.395 32.082,41.167 32.421,41.167 32.540 C 41.167 32.659,40.856 33.130,40.477 33.586 C 40.097 34.043,39.688 34.651,39.566 34.938 C 39.445 35.225,39.234 35.503,39.097 35.555 C 38.960 35.607,38.684 35.973,38.483 36.367 C 38.282 36.761,37.933 37.271,37.707 37.500 C 35.675 39.565,35.422 41.284,37.031 42.099 L 37.830 42.504 53.956 42.544 L 70.083 42.583 70.955 42.085 C 72.333 41.297,72.599 39.812,71.536 38.842 C 71.266 38.595,70.953 38.113,70.840 37.770 C 70.714 37.387,70.485 37.089,70.249 37.000 C 70.006 36.907,69.822 36.659,69.748 36.325 C 69.684 36.034,69.378 35.514,69.067 35.170 C 68.756 34.826,68.388 34.274,68.250 33.942 C 68.112 33.611,67.812 33.218,67.584 33.068 C 67.341 32.910,67.095 32.520,66.990 32.129 C 66.775 31.331,66.160 30.668,65.633 30.664 C 64.367 30.657,64.086 30.167,64.912 29.410 C 65.235 29.114,65.500 28.801,65.500 28.715 C 65.500 28.628,65.835 28.193,66.244 27.748 C 66.653 27.302,67.034 26.726,67.091 26.466 C 67.154 26.180,67.380 25.898,67.667 25.750 C 67.966 25.595,68.180 25.320,68.250 25.001 C 68.313 24.712,68.597 24.316,68.914 24.074 C 69.219 23.842,69.515 23.463,69.573 23.233 C 69.631 23.002,69.964 22.499,70.315 22.115 C 70.665 21.731,71.000 21.214,71.060 20.967 C 71.122 20.708,71.361 20.425,71.621 20.300 C 71.912 20.161,72.167 19.831,72.334 19.378 C 72.478 18.990,72.742 18.563,72.923 18.429 C 73.307 18.144,73.167 17.806,72.442 17.265 C 72.049 16.972,71.626 16.915,69.038 16.810 C 67.413 16.745,66.072 16.686,66.058 16.679 C 65.770 16.541,65.667 14.908,65.667 10.500 C 65.667 5.226,65.588 4.481,64.993 4.163 C 64.561 3.932,64.541 3.939,63.950 4.561 M65.001 5.335 C 65.116 5.550,65.193 7.601,65.215 11.068 C 65.257 17.566,65.117 17.158,67.317 17.182 C 70.048 17.212,71.803 17.398,72.094 17.689 C 72.419 18.015,71.926 19.371,71.329 19.788 C 71.147 19.916,70.877 20.259,70.730 20.552 C 70.583 20.844,70.271 21.288,70.037 21.538 C 69.803 21.788,69.455 22.247,69.264 22.558 C 68.795 23.321,68.039 24.370,67.333 25.238 C 67.012 25.633,66.620 26.172,66.461 26.436 C 66.302 26.700,65.795 27.404,65.333 28.000 C 64.872 28.596,64.365 29.306,64.206 29.578 C 64.047 29.850,63.721 30.264,63.481 30.499 C 63.241 30.733,62.888 31.233,62.696 31.609 C 62.504 31.985,62.235 32.336,62.097 32.388 C 61.959 32.441,61.617 32.938,61.337 33.492 C 61.057 34.047,60.739 34.500,60.631 34.500 C 60.522 34.500,60.185 34.740,59.881 35.034 C 59.364 35.536,59.313 35.551,59.048 35.287 C 58.714 34.953,58.564 29.922,58.815 27.483 C 58.965 26.020,58.842 25.549,58.179 25.054 C 57.931 24.869,56.125 24.877,53.532 25.077 C 52.688 25.141,52.634 25.121,52.325 24.614 C 51.791 23.738,52.004 22.333,52.671 22.333 C 52.752 22.333,52.971 21.986,53.159 21.562 C 53.347 21.137,53.763 20.499,54.084 20.144 C 54.404 19.789,54.667 19.355,54.667 19.178 C 54.667 19.002,54.845 18.717,55.064 18.545 C 55.282 18.373,55.651 17.857,55.884 17.398 C 56.117 16.938,56.432 16.459,56.583 16.333 C 56.735 16.207,57.035 15.757,57.250 15.333 C 57.465 14.909,57.765 14.459,57.917 14.333 C 58.069 14.207,58.414 13.668,58.683 13.135 C 58.952 12.602,59.239 12.167,59.321 12.167 C 59.403 12.167,59.631 11.835,59.827 11.430 C 60.023 11.025,60.295 10.601,60.431 10.488 C 60.567 10.375,60.938 9.818,61.256 9.251 C 61.573 8.683,61.980 8.085,62.160 7.923 C 62.340 7.760,62.570 7.375,62.672 7.069 C 62.841 6.555,64.350 5.000,64.679 5.000 C 64.757 5.000,64.902 5.151,65.001 5.335 M60.251 5.666 C 60.085 5.850,60.026 6.000,60.120 6.000 C 60.330 6.000,60.746 5.524,60.634 5.412 C 60.590 5.367,60.417 5.482,60.251 5.666 M54.389 16.344 C 54.693 16.778,54.567 17.282,54.074 17.605 C 53.864 17.742,53.557 18.232,53.391 18.694 C 53.215 19.184,52.899 19.668,52.632 19.858 C 52.361 20.051,52.103 20.451,51.999 20.839 C 51.901 21.199,51.670 21.576,51.483 21.676 C 51.297 21.775,50.995 22.207,50.811 22.635 C 50.628 23.063,50.210 23.658,49.884 23.958 C 49.345 24.451,49.298 24.564,49.380 25.174 C 49.538 26.352,49.474 26.333,53.342 26.333 L 56.809 26.333 57.163 26.783 C 57.510 27.224,57.516 27.347,57.487 33.299 C 57.451 40.943,57.697 41.350,60.083 37.577 C 60.267 37.287,60.642 36.690,60.917 36.251 C 61.192 35.812,61.698 35.170,62.042 34.823 C 62.385 34.476,62.667 34.091,62.667 33.966 C 62.667 33.842,62.929 33.492,63.250 33.190 C 63.571 32.887,63.833 32.543,63.833 32.426 C 63.833 31.841,64.518 31.322,65.141 31.434 C 66.068 31.601,66.328 31.794,66.655 32.556 C 66.820 32.940,67.082 33.361,67.238 33.490 C 67.394 33.620,67.638 33.956,67.781 34.238 C 67.923 34.520,68.330 35.132,68.686 35.599 C 69.042 36.066,69.333 36.521,69.333 36.610 C 69.333 36.700,69.582 37.068,69.885 37.428 C 70.717 38.416,71.705 40.324,71.601 40.740 C 71.548 40.951,71.203 41.244,70.751 41.464 L 69.991 41.833 53.989 41.833 C 36.557 41.833,37.292 41.871,36.521 40.941 C 36.293 40.667,37.231 38.808,38.133 37.746 C 38.380 37.455,38.716 36.999,38.878 36.733 C 39.041 36.467,39.475 35.837,39.844 35.333 C 40.212 34.829,40.790 34.004,41.127 33.500 C 41.464 32.996,41.930 32.351,42.162 32.066 C 42.394 31.782,42.715 31.332,42.876 31.066 C 43.037 30.801,43.502 30.133,43.910 29.583 C 44.317 29.033,44.861 28.261,45.117 27.866 C 45.374 27.472,45.827 26.846,46.125 26.476 C 46.423 26.105,46.667 25.734,46.667 25.651 C 46.667 25.569,46.919 25.219,47.228 24.875 C 47.537 24.531,47.949 23.934,48.145 23.547 C 48.341 23.161,48.642 22.769,48.815 22.677 C 48.987 22.584,49.174 22.328,49.229 22.107 C 49.285 21.886,49.560 21.460,49.840 21.159 C 50.121 20.858,50.551 20.268,50.796 19.848 C 51.040 19.427,51.411 18.947,51.620 18.780 C 51.829 18.613,52.000 18.369,52.000 18.238 C 52.000 17.999,53.814 16.000,54.031 16.000 C 54.095 16.000,54.256 16.155,54.389 16.344 M54.167 19.250 C 54.167 19.387,54.092 19.500,54.000 19.500 C 53.908 19.500,53.833 19.387,53.833 19.250 C 53.833 19.112,53.908 19.000,54.000 19.000 C 54.092 19.000,54.167 19.112,54.167 19.250 M52.833 20.750 C 52.833 20.887,52.758 21.000,52.667 21.000 C 52.575 21.000,52.500 20.887,52.500 20.750 C 52.500 20.612,52.575 20.500,52.667 20.500 C 52.758 20.500,52.833 20.612,52.833 20.750 M51.500 23.479 C 51.500 24.629,50.766 25.535,50.057 25.263 C 49.646 25.105,49.854 24.425,50.333 24.359 C 50.906 24.280,51.167 24.031,51.167 23.563 C 51.167 23.345,51.242 23.167,51.333 23.167 C 51.425 23.167,51.500 23.307,51.500 23.479 M58.264 26.569 C 58.158 27.133,57.833 27.419,57.833 26.948 C 57.833 26.828,57.676 26.560,57.483 26.354 C 57.291 26.147,57.159 25.956,57.192 25.930 C 57.922 25.333,58.438 25.640,58.264 26.569 M68.667 27.692 C 68.667 28.041,68.676 28.043,69.000 27.750 C 69.183 27.584,69.333 27.422,69.333 27.391 C 69.333 27.359,69.183 27.333,69.000 27.333 C 68.770 27.333,68.667 27.444,68.667 27.692 M58.118 33.040 C 58.078 33.247,58.044 33.117,58.042 32.750 C 58.040 32.383,58.073 32.214,58.115 32.373 C 58.156 32.532,58.158 32.832,58.118 33.040 M62.167 33.917 C 62.167 34.054,62.092 34.167,62.000 34.167 C 61.908 34.167,61.833 34.054,61.833 33.917 C 61.833 33.779,61.908 33.667,62.000 33.667 C 62.092 33.667,62.167 33.779,62.167 33.917 M71.333 35.000 C 71.333 35.230,71.444 35.333,71.692 35.333 C 72.041 35.333,72.043 35.324,71.750 35.000 C 71.584 34.817,71.422 34.667,71.391 34.667 C 71.359 34.667,71.333 34.817,71.333 35.000 M58.908 36.169 C 60.083 36.175,60.065 37.511,58.880 38.210 C 58.578 38.388,58.286 38.714,58.231 38.933 C 58.065 39.594,57.833 39.204,57.833 38.263 C 57.833 36.864,58.019 35.785,58.224 35.991 C 58.321 36.087,58.629 36.168,58.908 36.169 M21.583 36.333 C 21.291 36.657,21.292 36.667,21.641 36.667 C 21.889 36.667,22.000 36.564,22.000 36.333 C 22.000 36.150,21.974 36.000,21.942 36.000 C 21.911 36.000,21.749 36.150,21.583 36.333 M74.000 39.000 C 74.000 39.230,74.111 39.333,74.359 39.333 C 74.708 39.333,74.709 39.324,74.417 39.000 C 74.251 38.817,74.089 38.667,74.058 38.667 C 74.026 38.667,74.000 38.817,74.000 39.000 M83.361 52.411 C 83.401 52.756,83.520 52.901,83.797 52.943 C 84.224 53.007,84.111 52.605,83.578 52.162 C 83.335 51.960,83.311 51.987,83.361 52.411 " stroke="none" fill="#718cc1" fill-rule="evenodd"></path><path id="path2" d="M63.696 5.755 C 63.234 6.171,62.773 6.762,62.672 7.069 C 62.570 7.375,62.340 7.760,62.160 7.923 C 61.980 8.085,61.573 8.683,61.256 9.251 C 60.938 9.818,60.567 10.375,60.431 10.488 C 60.295 10.601,60.023 11.025,59.827 11.430 C 59.631 11.835,59.403 12.167,59.321 12.167 C 59.239 12.167,58.952 12.602,58.683 13.135 C 58.414 13.668,58.069 14.207,57.917 14.333 C 57.765 14.459,57.465 14.909,57.250 15.333 C 57.035 15.757,56.735 16.207,56.583 16.333 C 56.432 16.459,56.117 16.938,55.884 17.398 C 55.651 17.857,55.282 18.373,55.064 18.545 C 54.845 18.717,54.667 19.002,54.667 19.178 C 54.667 19.355,54.404 19.789,54.084 20.144 C 53.763 20.499,53.347 21.137,53.159 21.562 C 52.971 21.986,52.752 22.333,52.671 22.333 C 52.004 22.333,51.791 23.738,52.325 24.614 C 52.634 25.121,52.688 25.141,53.532 25.077 C 56.125 24.877,57.931 24.869,58.179 25.054 C 58.842 25.549,58.965 26.020,58.815 27.483 C 58.564 29.922,58.714 34.953,59.048 35.287 C 59.313 35.551,59.364 35.536,59.881 35.034 C 60.185 34.740,60.522 34.500,60.631 34.500 C 60.739 34.500,61.057 34.047,61.337 33.492 C 61.617 32.938,61.959 32.441,62.097 32.388 C 62.235 32.336,62.504 31.985,62.696 31.609 C 62.888 31.233,63.241 30.733,63.481 30.499 C 63.721 30.264,64.047 29.850,64.206 29.578 C 64.365 29.306,64.872 28.596,65.333 28.000 C 65.795 27.404,66.302 26.700,66.461 26.436 C 66.620 26.172,67.012 25.633,67.333 25.238 C 68.039 24.370,68.795 23.321,69.264 22.558 C 69.455 22.247,69.803 21.788,70.037 21.538 C 70.271 21.288,70.583 20.844,70.730 20.552 C 70.877 20.259,71.147 19.916,71.329 19.788 C 71.926 19.371,72.419 18.015,72.094 17.689 C 71.803 17.398,70.048 17.212,67.317 17.182 C 65.117 17.158,65.257 17.566,65.215 11.068 C 65.172 4.453,65.167 4.433,63.696 5.755 M64.899 5.597 C 64.954 5.742,65.000 8.095,65.000 10.826 C 65.000 17.822,64.682 17.250,68.667 17.420 C 72.469 17.582,72.720 17.853,71.019 19.954 C 70.282 20.863,69.528 21.862,68.591 23.167 C 68.098 23.854,67.511 24.642,67.287 24.917 C 67.063 25.192,66.762 25.647,66.618 25.929 C 66.473 26.210,66.230 26.545,66.077 26.672 C 65.925 26.798,65.542 27.280,65.227 27.743 C 64.128 29.355,63.472 30.253,63.090 30.667 C 62.878 30.896,62.582 31.327,62.431 31.625 C 62.281 31.923,62.090 32.167,62.007 32.167 C 61.924 32.167,61.610 32.614,61.309 33.161 C 60.958 33.801,60.599 34.223,60.303 34.346 C 60.051 34.450,59.758 34.640,59.652 34.768 C 59.022 35.527,58.901 34.611,59.019 29.961 C 59.159 24.407,59.296 24.603,55.257 24.545 C 52.686 24.507,52.591 24.493,52.388 24.128 C 52.063 23.542,52.127 23.095,52.600 22.654 C 52.838 22.432,53.207 21.908,53.420 21.490 C 53.633 21.071,53.932 20.626,54.083 20.500 C 54.235 20.374,54.535 19.924,54.750 19.500 C 54.965 19.076,55.264 18.626,55.416 18.501 C 55.567 18.375,55.844 17.967,56.031 17.594 C 56.217 17.222,56.545 16.729,56.759 16.500 C 56.974 16.271,57.259 15.819,57.394 15.497 C 57.529 15.174,57.804 14.761,58.004 14.580 C 58.205 14.398,58.580 13.833,58.838 13.323 C 59.095 12.814,59.421 12.301,59.561 12.185 C 59.702 12.068,59.977 11.642,60.173 11.237 C 60.369 10.831,60.597 10.500,60.679 10.500 C 60.761 10.500,61.046 10.069,61.313 9.542 C 61.579 9.015,61.948 8.447,62.133 8.280 C 62.318 8.113,62.563 7.738,62.676 7.446 C 63.046 6.498,64.713 5.111,64.899 5.597 M52.957 17.000 C 52.431 17.550,52.000 18.107,52.000 18.238 C 52.000 18.369,51.829 18.613,51.620 18.780 C 51.411 18.947,51.040 19.427,50.796 19.848 C 50.551 20.268,50.121 20.858,49.840 21.159 C 49.560 21.460,49.285 21.886,49.229 22.107 C 49.174 22.328,48.987 22.584,48.815 22.677 C 48.642 22.769,48.341 23.161,48.145 23.547 C 47.949 23.934,47.537 24.531,47.228 24.875 C 46.919 25.219,46.667 25.569,46.667 25.651 C 46.667 25.734,46.423 26.105,46.125 26.476 C 45.827 26.846,45.374 27.472,45.117 27.866 C 44.861 28.261,44.317 29.033,43.910 29.583 C 43.502 30.133,43.037 30.801,42.876 31.066 C 42.715 31.332,42.394 31.782,42.162 32.066 C 41.930 32.351,41.464 32.996,41.127 33.500 C 40.790 34.004,40.212 34.829,39.844 35.333 C 39.475 35.837,39.041 36.467,38.878 36.733 C 38.716 36.999,38.380 37.455,38.133 37.746 C 37.231 38.808,36.293 40.667,36.521 40.941 C 37.292 41.871,36.557 41.833,53.989 41.833 L 69.991 41.833 70.751 41.464 C 71.203 41.244,71.548 40.951,71.601 40.740 C 71.705 40.324,70.717 38.416,69.885 37.428 C 69.582 37.068,69.333 36.700,69.333 36.610 C 69.333 36.521,69.042 36.066,68.686 35.599 C 68.330 35.132,67.923 34.520,67.781 34.238 C 67.638 33.956,67.394 33.620,67.238 33.490 C 67.082 33.361,66.820 32.940,66.655 32.556 C 66.037 31.113,63.833 31.012,63.833 32.426 C 63.833 32.543,63.571 32.887,63.250 33.190 C 62.929 33.492,62.667 33.842,62.667 33.966 C 62.667 34.091,62.385 34.476,62.042 34.823 C 61.698 35.170,61.192 35.812,60.917 36.251 C 60.642 36.690,60.267 37.287,60.083 37.577 C 58.682 39.793,57.628 40.339,57.453 38.941 L 57.387 38.417 57.360 38.940 C 57.344 39.248,57.468 39.625,57.661 39.857 L 57.988 40.250 58.952 39.229 C 59.483 38.668,60.082 37.955,60.284 37.646 C 61.256 36.154,61.826 35.369,62.307 34.857 C 62.597 34.550,62.833 34.221,62.833 34.128 C 62.833 34.034,63.077 33.679,63.375 33.339 C 63.673 33.000,64.044 32.484,64.201 32.194 C 64.696 31.274,65.856 31.556,66.581 32.774 C 67.370 34.097,68.102 35.206,68.546 35.750 C 68.771 36.025,69.114 36.565,69.309 36.949 C 69.505 37.334,69.769 37.709,69.897 37.783 C 70.124 37.914,71.500 40.405,71.500 40.685 C 71.500 40.763,71.181 40.997,70.792 41.205 L 70.083 41.583 53.955 41.544 C 39.328 41.508,37.776 41.479,37.288 41.229 C 36.598 40.876,36.462 40.653,36.742 40.337 C 36.866 40.198,37.076 39.821,37.209 39.500 C 37.343 39.179,37.736 38.579,38.083 38.167 C 38.431 37.754,38.816 37.177,38.939 36.884 C 39.063 36.591,39.262 36.291,39.383 36.218 C 39.598 36.086,40.172 35.306,41.115 33.868 C 41.372 33.474,41.865 32.800,42.208 32.371 C 42.552 31.941,42.833 31.507,42.833 31.407 C 42.833 31.307,43.028 31.043,43.266 30.821 C 43.504 30.598,43.836 30.149,44.004 29.822 C 44.172 29.495,44.559 28.922,44.863 28.549 C 45.168 28.177,45.549 27.657,45.711 27.394 C 46.263 26.498,47.136 25.300,47.560 24.858 C 47.792 24.615,48.099 24.138,48.241 23.798 C 48.383 23.457,48.647 23.100,48.826 23.004 C 49.006 22.908,49.302 22.492,49.485 22.079 C 49.667 21.667,49.936 21.283,50.083 21.227 C 50.230 21.171,50.569 20.690,50.837 20.159 C 51.106 19.627,51.456 19.168,51.616 19.137 C 51.788 19.103,52.012 18.776,52.166 18.332 C 52.449 17.516,53.337 17.096,53.331 17.781 C 53.325 18.435,52.862 19.393,52.445 19.611 C 52.156 19.762,51.979 20.028,51.905 20.421 C 51.841 20.762,51.605 21.161,51.340 21.378 C 51.090 21.583,50.754 22.087,50.595 22.500 C 50.435 22.912,50.048 23.485,49.736 23.772 C 49.222 24.245,49.167 24.383,49.167 25.204 C 49.167 26.470,49.264 26.500,53.312 26.500 C 57.763 26.500,57.316 25.838,57.375 32.508 L 57.422 37.750 57.461 32.481 C 57.499 27.372,57.490 27.198,57.155 26.772 L 56.809 26.333 53.342 26.333 C 49.474 26.333,49.538 26.352,49.380 25.174 C 49.298 24.564,49.345 24.451,49.884 23.958 C 50.210 23.658,50.628 23.063,50.811 22.635 C 50.995 22.207,51.297 21.775,51.483 21.676 C 51.670 21.576,51.901 21.199,51.999 20.839 C 52.103 20.451,52.361 20.051,52.632 19.858 C 52.899 19.668,53.215 19.184,53.391 18.694 C 53.557 18.232,53.864 17.742,54.074 17.605 C 54.567 17.282,54.693 16.778,54.389 16.344 C 54.055 15.867,54.032 15.877,52.957 17.000 M54.291 16.680 C 54.357 17.053,54.060 17.392,53.767 17.280 C 53.620 17.223,53.500 17.031,53.500 16.852 C 53.500 16.341,54.205 16.188,54.291 16.680 " stroke="none" fill="#8ca4cc" fill-rule="evenodd"></path><path id="path3" d="M63.733 6.132 C 63.265 6.564,62.790 7.155,62.676 7.446 C 62.563 7.738,62.318 8.113,62.133 8.280 C 61.948 8.447,61.579 9.015,61.313 9.542 C 61.046 10.069,60.761 10.500,60.679 10.500 C 60.597 10.500,60.369 10.831,60.173 11.237 C 59.977 11.642,59.702 12.068,59.561 12.185 C 59.421 12.301,59.095 12.814,58.838 13.323 C 58.580 13.833,58.205 14.398,58.004 14.580 C 57.804 14.761,57.529 15.174,57.394 15.497 C 57.259 15.819,56.974 16.271,56.759 16.500 C 56.545 16.729,56.217 17.222,56.031 17.594 C 55.844 17.967,55.567 18.375,55.416 18.501 C 55.264 18.626,54.965 19.076,54.750 19.500 C 54.535 19.924,54.235 20.374,54.083 20.500 C 53.932 20.626,53.633 21.071,53.420 21.490 C 53.207 21.908,52.838 22.432,52.600 22.654 C 52.127 23.095,52.063 23.542,52.388 24.128 C 52.591 24.493,52.686 24.507,55.257 24.545 C 59.296 24.603,59.159 24.407,59.019 29.961 C 58.901 34.611,59.022 35.527,59.652 34.768 C 59.758 34.640,60.051 34.450,60.303 34.346 C 60.599 34.223,60.958 33.801,61.309 33.161 C 61.610 32.614,61.924 32.167,62.007 32.167 C 62.090 32.167,62.281 31.923,62.431 31.625 C 62.582 31.327,62.878 30.896,63.090 30.667 C 63.472 30.253,64.128 29.355,65.227 27.743 C 65.542 27.280,65.925 26.798,66.077 26.672 C 66.230 26.545,66.473 26.210,66.618 25.929 C 66.762 25.647,67.063 25.192,67.287 24.917 C 67.511 24.642,68.098 23.854,68.591 23.167 C 69.528 21.862,70.282 20.863,71.019 19.954 C 72.720 17.853,72.469 17.582,68.667 17.420 C 64.682 17.250,65.000 17.822,65.000 10.826 C 65.000 4.663,65.065 4.903,63.733 6.132 M64.115 7.131 C 64.258 7.222,64.327 8.511,64.365 11.754 C 64.436 17.960,64.246 17.690,68.625 17.802 C 71.864 17.885,71.760 17.819,70.833 19.206 C 70.467 19.755,70.167 20.295,70.167 20.404 C 70.167 20.514,69.935 20.775,69.653 20.984 C 69.370 21.193,69.062 21.584,68.968 21.852 C 68.875 22.121,68.656 22.416,68.482 22.510 C 68.308 22.603,67.986 23.032,67.765 23.464 C 67.545 23.896,67.136 24.467,66.857 24.732 C 66.578 24.997,66.301 25.433,66.243 25.701 C 66.181 25.980,65.971 26.263,65.751 26.363 C 65.540 26.459,65.236 26.828,65.076 27.182 C 64.917 27.536,64.618 27.936,64.412 28.071 C 64.206 28.206,63.864 28.675,63.652 29.114 C 63.439 29.553,63.064 30.081,62.818 30.289 C 62.571 30.496,62.325 30.844,62.270 31.062 C 62.215 31.281,61.980 31.584,61.748 31.736 C 61.516 31.888,61.207 32.310,61.061 32.673 C 60.785 33.364,60.373 33.533,60.015 33.101 C 59.881 32.940,59.828 31.787,59.840 29.327 L 59.858 25.785 59.370 25.101 C 58.566 23.974,58.118 23.834,55.312 23.834 C 53.276 23.833,52.838 23.789,52.652 23.565 C 52.439 23.309,52.781 22.833,53.178 22.833 C 53.241 22.833,53.388 22.603,53.505 22.321 C 53.622 22.039,54.003 21.462,54.352 21.040 C 54.701 20.617,55.034 20.057,55.092 19.795 C 55.149 19.532,55.346 19.227,55.529 19.117 C 55.712 19.007,56.015 18.617,56.203 18.250 C 56.391 17.883,56.752 17.346,57.005 17.056 C 57.258 16.766,57.559 16.244,57.673 15.897 C 57.788 15.550,58.133 15.028,58.441 14.738 C 58.748 14.448,59.000 14.093,59.000 13.949 C 59.000 13.805,59.293 13.348,59.652 12.934 C 60.010 12.519,60.353 11.958,60.412 11.686 C 60.472 11.414,60.703 11.072,60.926 10.926 C 61.149 10.780,61.443 10.394,61.578 10.070 C 61.714 9.745,62.089 9.171,62.412 8.793 C 62.736 8.416,63.000 8.003,63.000 7.876 C 63.000 7.201,63.597 6.802,64.115 7.131 M53.708 16.444 C 53.410 16.564,53.451 17.158,53.767 17.280 C 54.060 17.392,54.357 17.053,54.291 16.680 C 54.245 16.414,54.016 16.321,53.708 16.444 M52.311 17.958 C 52.211 18.210,52.064 18.585,51.985 18.792 C 51.905 18.998,51.727 19.167,51.589 19.167 C 51.450 19.167,51.118 19.603,50.844 20.146 C 50.572 20.684,50.230 21.171,50.083 21.227 C 49.936 21.283,49.667 21.667,49.485 22.079 C 49.302 22.492,49.006 22.908,48.826 23.004 C 48.647 23.100,48.383 23.457,48.241 23.798 C 48.099 24.138,47.792 24.615,47.560 24.858 C 47.136 25.300,46.263 26.498,45.711 27.394 C 45.549 27.657,45.168 28.177,44.863 28.549 C 44.559 28.922,44.172 29.495,44.004 29.822 C 43.836 30.149,43.504 30.598,43.266 30.821 C 43.028 31.043,42.833 31.307,42.833 31.407 C 42.833 31.507,42.552 31.941,42.208 32.371 C 41.865 32.800,41.372 33.474,41.115 33.868 C 40.172 35.306,39.598 36.086,39.383 36.218 C 39.262 36.291,39.063 36.591,38.939 36.884 C 38.816 37.177,38.431 37.754,38.083 38.167 C 37.736 38.579,37.343 39.179,37.209 39.500 C 37.076 39.821,36.866 40.198,36.742 40.337 C 36.462 40.653,36.598 40.876,37.288 41.229 C 37.776 41.479,39.328 41.508,53.955 41.544 L 70.083 41.583 70.792 41.205 C 71.181 40.997,71.500 40.763,71.500 40.685 C 71.500 40.405,70.124 37.914,69.897 37.783 C 69.769 37.709,69.505 37.334,69.309 36.949 C 69.114 36.565,68.771 36.025,68.546 35.750 C 68.102 35.206,67.370 34.097,66.581 32.774 C 65.856 31.556,64.696 31.274,64.201 32.194 C 64.044 32.484,63.673 33.000,63.375 33.339 C 63.077 33.679,62.833 34.034,62.833 34.128 C 62.833 34.221,62.597 34.550,62.307 34.857 C 61.827 35.368,61.282 36.118,60.284 37.644 C 59.832 38.333,58.153 40.167,57.973 40.167 C 57.371 40.167,57.305 39.467,57.325 33.316 C 57.350 25.710,57.815 26.500,53.312 26.500 C 49.264 26.500,49.167 26.470,49.167 25.204 C 49.167 24.383,49.222 24.245,49.736 23.772 C 50.048 23.485,50.435 22.912,50.595 22.500 C 50.754 22.087,51.090 21.583,51.340 21.378 C 51.605 21.161,51.841 20.762,51.905 20.421 C 51.979 20.028,52.156 19.762,52.445 19.611 C 52.859 19.394,53.325 18.436,53.331 17.792 C 53.335 17.285,52.526 17.417,52.311 17.958 M51.500 20.583 C 51.500 20.721,51.425 20.833,51.333 20.833 C 51.242 20.833,51.167 20.721,51.167 20.583 C 51.167 20.446,51.242 20.333,51.333 20.333 C 51.425 20.333,51.500 20.446,51.500 20.583 M50.167 22.167 C 50.167 22.350,50.092 22.500,50.000 22.500 C 49.908 22.500,49.833 22.350,49.833 22.167 C 49.833 21.983,49.908 21.833,50.000 21.833 C 50.092 21.833,50.167 21.983,50.167 22.167 M48.831 24.625 C 48.829 24.785,48.756 25.029,48.667 25.167 C 48.544 25.356,48.504 25.286,48.503 24.875 C 48.501 24.577,48.575 24.333,48.667 24.333 C 48.758 24.333,48.832 24.465,48.831 24.625 M48.418 26.168 C 49.118 26.898,49.719 26.998,53.441 26.999 C 56.347 27.000,56.811 27.035,56.899 27.264 C 56.954 27.409,57.000 30.290,57.000 33.668 L 57.000 39.808 57.415 40.301 L 57.830 40.795 57.083 40.983 C 56.266 41.188,37.844 41.046,37.496 40.831 C 37.229 40.666,37.790 39.035,38.188 38.822 C 38.361 38.730,38.723 38.216,38.993 37.681 C 39.263 37.146,39.604 36.663,39.750 36.606 C 39.897 36.550,40.159 36.184,40.333 35.794 C 40.507 35.403,40.802 34.990,40.989 34.875 C 41.176 34.760,41.434 34.423,41.561 34.125 C 41.689 33.827,42.067 33.283,42.401 32.917 C 42.736 32.550,43.057 32.065,43.115 31.838 C 43.174 31.611,43.472 31.190,43.777 30.902 C 44.083 30.613,44.333 30.268,44.333 30.134 C 44.333 30.001,44.528 29.710,44.766 29.487 C 45.004 29.265,45.392 28.746,45.628 28.333 C 45.864 27.921,46.260 27.377,46.508 27.126 C 46.755 26.874,47.003 26.443,47.058 26.167 C 47.192 25.497,47.775 25.497,48.418 26.168 M65.861 32.522 C 66.014 32.600,66.187 32.881,66.245 33.146 C 66.304 33.411,66.612 33.932,66.930 34.304 C 67.248 34.675,67.619 35.244,67.754 35.567 C 67.889 35.890,68.139 36.230,68.310 36.321 C 68.481 36.413,68.827 36.908,69.079 37.423 C 69.331 37.937,69.644 38.399,69.774 38.449 C 70.395 38.687,70.894 40.703,70.386 40.916 C 69.830 41.150,60.049 41.231,59.064 41.010 L 58.168 40.810 58.709 40.266 C 59.779 39.190,60.333 38.505,60.333 38.256 C 60.333 38.117,60.566 37.796,60.850 37.543 C 61.134 37.290,61.482 36.858,61.622 36.583 C 61.763 36.308,62.168 35.766,62.522 35.379 C 62.877 34.991,63.167 34.531,63.167 34.356 C 63.167 34.181,63.360 33.911,63.597 33.756 C 63.834 33.601,64.127 33.236,64.249 32.945 C 64.593 32.125,64.918 32.039,65.861 32.522 " stroke="none" fill="#a4b8dc" fill-rule="evenodd"></path><path id="path4" d="M288.667 30.000 L 288.667 56.667 291.333 56.667 L 294.000 56.667 294.000 30.000 L 294.000 3.333 291.333 3.333 L 288.667 3.333 288.667 30.000 M63.173 7.322 C 63.078 7.500,63.000 7.749,63.000 7.876 C 63.000 8.003,62.736 8.416,62.412 8.793 C 62.089 9.171,61.714 9.745,61.578 10.070 C 61.443 10.394,61.149 10.780,60.926 10.926 C 60.703 11.072,60.472 11.414,60.412 11.686 C 60.353 11.958,60.010 12.519,59.652 12.934 C 59.293 13.348,59.000 13.805,59.000 13.949 C 59.000 14.093,58.748 14.448,58.441 14.738 C 58.133 15.028,57.788 15.550,57.673 15.897 C 57.559 16.244,57.258 16.766,57.005 17.056 C 56.752 17.346,56.391 17.883,56.203 18.250 C 56.015 18.617,55.712 19.007,55.529 19.117 C 55.346 19.227,55.149 19.532,55.092 19.795 C 55.034 20.057,54.701 20.617,54.352 21.040 C 54.003 21.462,53.622 22.039,53.505 22.321 C 53.388 22.603,53.241 22.833,53.178 22.833 C 52.781 22.833,52.439 23.309,52.652 23.565 C 52.838 23.789,53.276 23.833,55.312 23.834 C 58.118 23.834,58.566 23.974,59.370 25.101 L 59.858 25.785 59.840 29.327 C 59.828 31.787,59.881 32.940,60.015 33.101 C 60.373 33.533,60.785 33.364,61.061 32.673 C 61.207 32.310,61.516 31.888,61.748 31.736 C 61.980 31.584,62.215 31.281,62.270 31.062 C 62.325 30.844,62.571 30.496,62.818 30.289 C 63.064 30.081,63.439 29.553,63.652 29.114 C 63.864 28.675,64.206 28.206,64.412 28.071 C 64.618 27.936,64.917 27.536,65.076 27.182 C 65.236 26.828,65.540 26.459,65.751 26.363 C 65.971 26.263,66.181 25.980,66.243 25.701 C 66.301 25.433,66.578 24.997,66.857 24.732 C 67.136 24.467,67.545 23.896,67.765 23.464 C 67.986 23.032,68.308 22.603,68.482 22.510 C 68.656 22.416,68.875 22.121,68.968 21.852 C 69.062 21.584,69.370 21.193,69.653 20.984 C 69.935 20.775,70.167 20.514,70.167 20.404 C 70.167 20.295,70.467 19.755,70.833 19.206 C 71.760 17.819,71.864 17.885,68.625 17.802 C 64.246 17.690,64.436 17.960,64.365 11.754 C 64.327 8.511,64.258 7.222,64.115 7.131 C 63.763 6.908,63.350 6.992,63.173 7.322 M155.456 8.766 C 155.389 8.834,155.333 9.134,155.333 9.434 C 155.333 9.944,155.293 9.983,154.708 10.032 C 154.119 10.080,154.080 10.119,154.032 10.699 C 153.984 11.277,153.944 11.317,153.366 11.366 L 152.750 11.417 152.750 12.667 L 152.750 13.917 153.358 13.967 C 153.934 14.015,153.970 14.053,154.029 14.674 L 154.092 15.330 147.421 15.373 L 140.750 15.417 140.706 20.708 L 140.662 26.000 143.998 26.000 L 147.333 26.000 147.333 24.000 L 147.333 22.000 150.000 22.000 L 152.667 22.000 152.667 22.657 C 152.667 23.295,152.649 23.315,152.042 23.365 L 151.417 23.417 151.368 24.708 C 151.319 25.995,151.318 26.000,150.860 26.000 C 150.158 26.000,150.000 26.283,150.000 27.533 L 150.000 28.667 148.010 28.667 L 146.020 28.667 145.968 28.042 L 145.917 27.417 142.188 27.372 C 137.679 27.317,138.000 27.153,138.000 29.520 L 138.000 31.333 137.343 31.333 C 136.705 31.333,136.685 31.316,136.635 30.708 L 136.583 30.083 134.625 30.036 L 132.667 29.989 132.667 29.528 C 132.667 28.825,132.385 28.667,131.133 28.667 L 130.000 28.667 130.000 28.019 C 130.000 27.414,130.038 27.363,130.565 27.264 C 131.212 27.143,131.328 26.883,131.331 25.542 C 131.333 24.695,131.348 24.667,131.800 24.667 C 132.509 24.667,132.667 24.387,132.667 23.133 C 132.667 22.003,132.668 22.000,133.133 22.000 C 133.839 22.000,134.000 21.719,134.000 20.485 L 134.000 19.370 134.565 19.264 C 135.249 19.136,135.328 18.909,135.331 17.075 C 135.334 15.194,135.830 15.333,129.133 15.333 L 123.333 15.333 123.333 13.333 L 123.333 11.333 122.010 11.333 L 120.687 11.333 120.635 10.708 L 120.583 10.083 118.667 10.083 L 116.750 10.083 116.701 11.365 L 116.653 12.647 116.035 12.699 L 115.417 12.750 115.368 14.042 C 115.319 15.329,115.318 15.333,114.860 15.333 C 114.160 15.333,114.000 15.616,114.000 16.857 L 114.000 17.980 113.375 18.032 C 112.784 18.081,112.747 18.117,112.698 18.708 L 112.647 19.333 110.659 19.333 L 108.672 19.333 108.628 14.708 L 108.583 10.083 105.333 10.083 L 102.083 10.083 102.039 14.705 L 101.995 19.326 98.706 19.371 L 95.417 19.417 95.417 22.000 L 95.417 24.583 97.583 24.667 C 98.779 24.713,99.657 24.810,99.542 24.885 C 99.396 24.979,99.333 25.565,99.333 26.833 L 99.333 28.647 98.708 28.698 L 98.083 28.750 98.035 30.042 C 97.986 31.329,97.984 31.333,97.526 31.333 C 96.826 31.333,96.667 31.616,96.667 32.857 L 96.667 33.980 96.042 34.032 L 95.417 34.083 95.368 35.365 L 95.320 36.647 94.701 36.699 L 94.083 36.750 94.083 38.667 L 94.083 40.583 94.699 40.634 C 95.277 40.683,95.317 40.723,95.366 41.301 L 95.417 41.917 98.000 41.917 L 100.583 41.917 100.635 41.292 C 100.681 40.734,100.736 40.667,101.143 40.667 C 101.395 40.667,101.690 40.577,101.800 40.467 C 101.956 40.311,102.000 41.645,102.000 46.470 L 102.000 52.674 105.292 52.629 L 108.583 52.583 108.627 44.579 L 108.670 36.575 109.326 36.637 C 109.947 36.697,109.985 36.732,110.033 37.308 L 110.083 37.917 111.373 37.965 L 112.663 38.014 112.707 45.299 L 112.750 52.583 116.479 52.628 C 120.841 52.681,120.667 52.742,120.667 51.146 L 120.667 50.000 123.993 50.000 L 127.319 50.000 127.368 51.292 L 127.417 52.583 130.667 52.583 L 133.917 52.583 133.960 45.292 L 134.004 38.000 135.135 38.000 C 136.552 38.000,136.667 37.886,136.667 36.477 L 136.667 35.353 137.292 35.302 C 137.891 35.252,137.919 35.223,137.966 34.583 L 138.015 33.917 142.053 33.964 L 146.091 34.011 146.030 34.657 C 145.974 35.240,145.914 35.312,145.407 35.407 C 144.701 35.540,144.632 35.850,144.700 38.583 L 144.750 40.583 146.699 40.630 L 148.647 40.677 148.699 41.297 L 148.750 41.917 150.708 41.964 L 152.667 42.011 152.667 42.665 L 152.667 43.319 151.375 43.368 L 150.083 43.417 150.032 44.042 L 149.980 44.667 147.782 44.669 C 145.038 44.672,144.871 44.714,144.736 45.431 L 144.631 45.992 142.024 46.038 L 139.417 46.083 139.417 48.000 L 139.417 49.917 140.035 49.968 L 140.653 50.019 140.701 51.301 L 140.750 52.583 144.083 52.632 C 148.271 52.693,148.454 52.664,148.595 51.915 L 148.702 51.344 150.643 51.297 L 152.583 51.250 152.635 50.625 L 152.687 50.000 154.477 50.000 C 156.420 50.000,156.667 49.903,156.667 49.140 C 156.667 48.682,156.671 48.681,157.958 48.632 L 159.250 48.583 159.302 47.958 L 159.353 47.333 160.477 47.333 C 161.720 47.333,162.000 47.174,162.000 46.467 C 162.000 46.033,162.048 46.000,162.667 46.000 C 163.286 46.000,163.333 46.033,163.333 46.467 C 163.333 47.175,163.613 47.333,164.867 47.333 C 165.997 47.333,166.000 47.335,166.000 47.800 C 166.000 48.507,166.280 48.667,167.523 48.667 L 168.647 48.667 168.698 49.292 L 168.750 49.917 170.032 49.965 L 171.314 50.014 171.365 50.632 C 171.414 51.215,171.452 51.253,172.042 51.302 C 172.604 51.348,172.667 51.401,172.667 51.823 C 172.667 52.577,172.956 52.684,174.858 52.631 L 176.583 52.583 176.634 51.968 C 176.683 51.390,176.723 51.349,177.301 51.301 C 177.879 51.253,177.920 51.213,177.968 50.634 C 178.016 50.056,178.056 50.016,178.634 49.968 L 179.250 49.917 179.297 47.958 L 179.344 46.000 178.682 46.000 C 178.037 46.000,178.019 45.984,177.968 45.375 L 177.917 44.750 176.635 44.701 L 175.353 44.653 175.301 44.035 L 175.250 43.417 173.968 43.368 L 172.686 43.320 172.635 42.701 L 172.583 42.083 171.301 42.035 L 170.019 41.986 169.968 41.368 C 169.919 40.776,169.888 40.748,169.250 40.701 L 168.583 40.652 168.637 39.336 L 168.691 38.019 169.304 37.968 L 169.917 37.917 169.965 36.635 L 170.014 35.353 170.632 35.301 C 171.214 35.253,171.253 35.214,171.302 34.628 L 171.353 34.006 175.302 33.961 L 179.250 33.917 179.250 30.667 L 179.250 27.417 177.917 27.333 L 176.583 27.250 176.583 21.333 L 176.583 15.417 169.958 15.373 L 163.333 15.330 163.333 14.198 C 163.333 12.951,163.174 12.667,162.477 12.667 C 162.069 12.667,162.015 12.599,161.968 12.042 C 161.920 11.454,161.880 11.414,161.310 11.366 L 160.703 11.315 160.638 10.167 C 160.603 9.535,160.513 8.958,160.440 8.884 C 160.269 8.713,155.620 8.603,155.456 8.766 M186.113 15.442 C 186.051 15.505,186.000 15.806,186.000 16.111 C 186.000 16.648,185.978 16.667,185.333 16.667 L 184.667 16.667 184.667 17.333 L 184.667 18.000 184.000 18.000 C 183.335 18.000,183.333 18.002,183.333 18.657 C 183.333 19.295,183.316 19.315,182.708 19.365 L 182.083 19.417 182.035 20.691 L 181.987 21.965 181.416 22.072 C 180.629 22.220,180.648 21.968,180.702 31.917 L 180.750 40.583 181.368 40.635 L 181.986 40.686 182.035 41.968 L 182.083 43.250 182.690 43.301 L 183.297 43.351 183.362 44.500 C 183.441 45.909,183.424 45.892,184.833 45.972 L 185.982 46.037 186.033 46.643 L 186.083 47.250 194.042 47.293 L 202.000 47.337 202.000 38.668 L 202.000 30.000 195.996 30.000 L 189.993 30.000 190.038 33.292 L 190.083 36.583 192.708 36.629 L 195.333 36.675 195.333 37.319 C 195.333 37.919,195.295 37.970,194.768 38.069 C 194.121 38.190,194.006 38.450,194.002 39.792 L 194.000 40.667 193.411 40.667 C 192.957 40.667,192.788 40.752,192.672 41.042 C 192.569 41.297,192.518 41.330,192.511 41.144 C 192.498 40.810,192.021 40.672,190.875 40.669 L 190.000 40.667 190.000 39.533 C 190.000 38.280,189.842 38.000,189.133 38.000 L 188.667 38.000 188.667 31.333 L 188.667 24.667 189.133 24.667 C 189.842 24.667,190.000 24.387,190.000 23.133 L 190.000 22.000 190.589 22.000 C 191.043 22.000,191.212 21.915,191.328 21.625 C 191.431 21.370,191.482 21.337,191.489 21.522 C 191.502 21.856,191.979 21.995,193.120 21.998 L 193.989 22.000 194.036 23.958 L 194.083 25.917 194.701 25.968 L 195.320 26.019 195.368 27.301 L 195.417 28.583 198.667 28.583 L 201.917 28.583 201.965 24.583 C 202.025 19.679,202.007 19.548,201.253 19.406 C 200.743 19.311,200.680 19.237,200.634 18.691 C 200.586 18.120,200.546 18.080,199.958 18.032 C 199.351 17.981,199.333 17.962,199.333 17.323 C 199.333 16.670,199.330 16.667,198.677 16.667 C 198.038 16.667,198.019 16.649,197.968 16.042 L 197.917 15.417 192.072 15.373 C 188.857 15.349,186.175 15.380,186.113 15.442 M203.411 15.540 C 203.367 15.656,203.350 22.837,203.374 31.500 L 203.417 47.250 218.000 47.250 L 232.583 47.250 232.632 45.958 C 232.681 44.671,232.682 44.667,233.140 44.667 C 233.938 44.667,234.000 44.461,234.000 41.810 L 234.000 39.353 234.625 39.302 C 235.216 39.253,235.253 39.216,235.302 38.625 L 235.353 38.000 237.343 38.000 L 239.333 38.000 239.336 40.208 C 239.338 42.962,239.380 43.129,240.097 43.263 L 240.656 43.369 240.703 45.309 L 240.750 47.250 248.667 47.250 L 256.583 47.250 256.667 41.750 C 256.712 38.725,256.811 36.344,256.885 36.458 C 256.959 36.573,257.237 36.667,257.503 36.667 L 257.986 36.667 258.035 37.958 L 258.083 39.250 258.701 39.301 L 259.320 39.353 259.368 40.635 L 259.417 41.917 260.042 41.968 L 260.667 42.020 260.669 43.552 C 260.672 45.582,260.742 45.801,261.426 45.929 C 261.922 46.023,261.987 46.099,262.033 46.642 L 262.083 47.250 266.042 47.295 L 270.000 47.339 270.000 31.333 L 270.000 15.327 266.042 15.372 L 262.083 15.417 262.039 20.754 L 261.995 26.092 261.338 26.029 L 260.680 25.966 260.632 24.691 L 260.583 23.417 259.958 23.365 L 259.333 23.313 259.331 21.782 C 259.328 19.746,259.259 19.533,258.565 19.402 L 258.000 19.296 258.000 18.181 C 258.000 16.947,257.839 16.667,257.133 16.667 C 256.700 16.667,256.667 16.619,256.667 16.000 L 256.667 15.333 252.667 15.333 L 248.667 15.333 248.667 28.200 C 248.667 38.207,248.622 41.022,248.467 40.867 C 248.357 40.757,248.059 40.667,247.805 40.667 L 247.344 40.667 247.297 38.708 L 247.250 36.750 246.625 36.698 L 246.000 36.647 246.000 34.190 C 246.000 31.538,245.938 31.333,245.139 31.333 L 244.677 31.333 244.630 29.375 L 244.583 27.417 243.958 27.365 L 243.333 27.313 243.333 24.857 C 243.333 22.204,243.272 22.000,242.472 22.000 L 242.011 22.000 241.964 20.042 L 241.917 18.083 241.292 18.032 L 240.667 17.980 240.667 16.654 L 240.667 15.327 236.708 15.372 L 232.750 15.417 232.703 17.365 L 232.656 19.314 232.036 19.365 L 231.417 19.417 231.370 21.357 L 231.323 23.298 230.763 23.403 C 230.047 23.538,230.005 23.706,230.002 26.448 L 230.000 28.647 229.375 28.698 L 228.750 28.750 228.703 30.691 L 228.656 32.631 228.097 32.737 C 227.380 32.871,227.338 33.039,227.336 35.782 L 227.333 37.980 226.708 38.032 L 226.083 38.083 226.037 40.024 L 225.990 41.965 225.423 42.071 C 225.089 42.134,224.825 42.295,224.781 42.464 C 224.726 42.673,224.700 42.649,224.686 42.375 L 224.667 42.000 218.000 42.000 L 211.333 42.000 211.333 38.002 L 211.333 34.004 217.292 33.960 L 223.250 33.917 223.250 30.667 L 223.250 27.417 217.292 27.373 L 211.333 27.329 211.333 24.000 L 211.333 20.670 217.958 20.627 L 224.583 20.583 224.583 18.000 L 224.583 15.417 214.037 15.374 C 205.688 15.340,203.474 15.375,203.411 15.540 M314.078 15.539 C 314.034 15.655,314.017 22.837,314.040 31.500 L 314.083 47.250 318.000 47.250 L 321.917 47.250 321.917 31.333 L 321.917 15.417 318.038 15.372 C 315.025 15.337,314.141 15.374,314.078 15.539 M331.535 15.531 C 331.424 15.642,331.333 15.939,331.333 16.190 C 331.333 16.597,331.266 16.652,330.708 16.698 C 330.119 16.747,330.080 16.785,330.032 17.366 C 329.984 17.944,329.944 17.984,329.366 18.032 L 328.750 18.083 328.701 19.365 L 328.653 20.647 328.035 20.699 L 327.417 20.750 327.374 31.148 C 327.328 42.289,327.306 42.000,328.187 42.000 L 328.667 42.000 328.667 43.133 C 328.667 44.383,328.825 44.667,329.523 44.667 C 329.931 44.667,329.985 44.734,330.032 45.292 C 330.081 45.883,330.117 45.919,330.708 45.968 C 331.270 46.015,331.333 46.067,331.333 46.490 C 331.333 47.342,331.325 47.341,338.186 47.294 L 344.583 47.250 344.635 46.625 C 344.685 46.017,344.705 46.000,345.343 46.000 C 345.997 46.000,346.000 45.997,346.000 45.343 C 346.000 44.705,346.017 44.685,346.625 44.635 C 347.213 44.586,347.253 44.547,347.301 43.975 C 347.346 43.432,347.411 43.356,347.907 43.263 C 348.619 43.129,348.662 42.958,348.664 40.227 L 348.667 38.037 349.232 37.931 C 350.009 37.785,349.995 37.907,349.998 31.075 C 350.000 24.620,350.006 24.667,349.133 24.667 L 348.667 24.667 348.667 22.667 L 348.667 20.667 351.332 20.667 L 353.998 20.667 354.041 33.958 L 354.083 47.250 358.000 47.250 L 361.917 47.250 361.959 33.958 L 362.002 20.667 365.334 20.667 L 368.667 20.667 368.667 17.999 L 368.667 15.331 358.042 15.374 L 347.417 15.417 347.369 16.754 L 347.321 18.091 346.661 18.028 C 346.015 17.966,346.000 17.950,346.000 17.316 C 346.000 16.671,345.995 16.667,345.343 16.667 C 344.705 16.667,344.685 16.649,344.635 16.042 L 344.583 15.417 338.160 15.373 C 333.304 15.340,331.688 15.379,331.535 15.531 M51.167 20.583 C 51.167 20.721,51.242 20.833,51.333 20.833 C 51.425 20.833,51.500 20.721,51.500 20.583 C 51.500 20.446,51.425 20.333,51.333 20.333 C 51.242 20.333,51.167 20.446,51.167 20.583 M124.696 22.000 L 124.641 23.333 123.997 23.333 C 123.374 23.333,123.352 23.314,123.302 22.708 C 123.253 22.117,123.216 22.081,122.625 22.032 C 122.017 21.981,122.000 21.962,122.000 21.323 L 122.000 20.667 123.375 20.666 L 124.750 20.666 124.696 22.000 M338.848 22.000 C 339.227 22.000,339.313 22.089,339.404 22.577 C 339.497 23.071,339.595 23.169,340.083 23.261 L 340.653 23.368 340.702 24.642 L 340.750 25.917 341.375 25.968 L 342.000 26.020 342.000 31.333 L 342.000 36.647 341.375 36.698 L 340.750 36.750 340.702 38.024 L 340.653 39.299 340.083 39.406 C 339.598 39.497,339.497 39.597,339.407 40.074 C 339.215 41.098,336.720 41.054,336.634 40.025 C 336.586 39.454,336.545 39.414,335.963 39.365 L 335.342 39.314 335.296 36.699 L 335.250 34.083 334.625 34.032 L 334.000 33.980 334.000 31.333 L 334.000 28.687 334.625 28.635 L 335.250 28.583 335.296 25.968 L 335.342 23.353 335.963 23.301 C 336.549 23.253,336.586 23.215,336.635 22.625 C 336.684 22.036,336.719 22.000,337.250 22.000 C 337.560 22.000,337.864 21.918,337.926 21.819 C 338.006 21.688,338.088 21.688,338.219 21.819 C 338.318 21.918,338.602 22.000,338.848 22.000 M49.833 22.167 C 49.833 22.350,49.908 22.500,50.000 22.500 C 50.092 22.500,50.167 22.350,50.167 22.167 C 50.167 21.983,50.092 21.833,50.000 21.833 C 49.908 21.833,49.833 21.983,49.833 22.167 M170.037 24.625 L 170.083 27.250 170.917 27.333 C 171.426 27.384,171.669 27.469,171.542 27.552 C 171.427 27.626,171.333 27.907,171.333 28.177 L 171.333 28.667 164.667 28.667 L 158.000 28.667 158.000 28.010 C 158.000 27.372,158.017 27.352,158.625 27.302 C 159.213 27.253,159.253 27.214,159.301 26.642 C 159.346 26.099,159.411 26.023,159.907 25.929 C 160.592 25.801,160.661 25.583,160.664 23.542 L 160.667 22.000 165.329 22.000 L 169.992 22.000 170.037 24.625 M48.503 24.875 C 48.504 25.286,48.544 25.356,48.667 25.167 C 48.878 24.839,48.878 24.333,48.667 24.333 C 48.575 24.333,48.501 24.577,48.503 24.875 M47.058 26.167 C 47.003 26.443,46.755 26.874,46.508 27.126 C 46.260 27.377,45.864 27.921,45.628 28.333 C 45.392 28.746,45.004 29.265,44.766 29.487 C 44.528 29.710,44.333 30.001,44.333 30.134 C 44.333 30.268,44.083 30.613,43.777 30.902 C 43.472 31.190,43.174 31.611,43.115 31.838 C 43.057 32.065,42.736 32.550,42.401 32.917 C 42.067 33.283,41.689 33.827,41.561 34.125 C 41.434 34.423,41.176 34.760,40.989 34.875 C 40.802 34.990,40.507 35.403,40.333 35.794 C 40.159 36.184,39.897 36.550,39.750 36.606 C 39.604 36.663,39.263 37.146,38.993 37.681 C 38.723 38.216,38.361 38.730,38.188 38.822 C 37.790 39.035,37.229 40.666,37.496 40.831 C 37.844 41.046,56.266 41.188,57.083 40.983 L 57.830 40.795 57.415 40.301 L 57.000 39.808 57.000 33.668 C 57.000 30.290,56.954 27.409,56.899 27.264 C 56.811 27.035,56.347 27.000,53.441 26.999 C 49.719 26.998,49.118 26.898,48.418 26.168 C 47.775 25.497,47.192 25.497,47.058 26.167 M117.533 27.333 C 117.967 27.333,118.000 27.381,118.000 28.000 L 118.000 28.667 117.125 28.669 C 115.784 28.672,115.524 28.788,115.402 29.435 L 115.296 30.000 113.981 30.000 L 112.667 30.000 112.667 28.867 C 112.667 28.207,112.583 27.650,112.467 27.533 C 112.311 27.378,112.735 27.333,114.373 27.333 C 115.711 27.333,116.521 27.267,116.592 27.152 C 116.673 27.022,116.755 27.022,116.885 27.152 C 116.985 27.252,117.277 27.333,117.533 27.333 M64.593 32.295 C 64.526 32.362,64.371 32.655,64.249 32.945 C 64.127 33.236,63.834 33.601,63.597 33.756 C 63.360 33.911,63.167 34.181,63.167 34.356 C 63.167 34.531,62.877 34.991,62.522 35.379 C 62.168 35.766,61.763 36.308,61.622 36.583 C 61.482 36.858,61.134 37.290,60.850 37.543 C 60.566 37.796,60.333 38.117,60.333 38.256 C 60.333 38.505,59.779 39.190,58.709 40.266 L 58.168 40.810 59.064 41.010 C 60.049 41.231,69.830 41.150,70.386 40.916 C 70.894 40.703,70.395 38.687,69.774 38.449 C 69.644 38.399,69.331 37.937,69.079 37.423 C 68.827 36.908,68.481 36.413,68.310 36.321 C 68.139 36.230,67.889 35.890,67.754 35.567 C 67.619 35.244,67.248 34.675,66.930 34.304 C 66.612 33.932,66.304 33.411,66.245 33.146 C 66.187 32.881,66.014 32.600,65.861 32.522 C 65.401 32.286,64.724 32.165,64.593 32.295 M124.695 33.333 L 124.759 34.000 124.000 34.000 L 123.241 34.000 123.305 33.333 C 123.367 32.684,123.385 32.667,124.000 32.667 C 124.615 32.667,124.633 32.684,124.695 33.333 M162.029 35.324 L 161.975 36.648 161.363 36.699 C 160.786 36.747,160.747 36.786,160.698 37.375 C 160.628 38.227,159.333 38.378,159.333 37.533 C 159.333 36.727,159.133 36.667,156.467 36.667 L 154.000 36.667 154.000 36.010 C 154.000 35.372,154.017 35.352,154.625 35.302 C 155.216 35.253,155.253 35.216,155.302 34.625 L 155.353 34.000 158.718 34.000 L 162.083 33.999 162.029 35.324 M127.333 42.000 L 127.333 44.667 124.000 44.667 L 120.667 44.667 120.667 42.000 L 120.667 39.333 124.000 39.333 L 127.333 39.333 127.333 42.000 " stroke="none" fill="#fcfcfc" fill-rule="evenodd"></path></g></svg>